ISO-10303-21;
HEADER;
/* Generated by software containing ST-Developer
 * from STEP Tools, Inc. (www.steptools.com) 
 */
/* OPTION: using custom renumber hook */

FILE_DESCRIPTION(
/* description */ ('STEP AP242 Edition 2',
'CAx-IF Rec.Pracs.---Representation and Presentation of Product Manufa
cturing Information (PMI)---4.0---2014-10-13',
'CAx-IF Rec.Pracs.---3D Tessellated Geometry---0.4---2014-09-14','2;1',
'CAx-IF Rec.Pracs.---User Defined Attributes---1.5---2016-08-15'),
/* implementation_level */ '2;1');

FILE_NAME(
/* name */ '6978f80eadcaa247844a634f',
/* time_stamp */ '2026-01-27T17:38:23Z',
/* author */ (''),
/* organization */ (''),
/* preprocessor_version */ 'ST-DEVELOPER v20',
/* originating_system */ 'ONSHAPE BY PTC INC, 1.209',
/* authorisation */ '  ');

FILE_SCHEMA (('AP242_MANAGED_MODEL_BASED_3D_ENGINEERING_MIM_LF { 1 0 10303 442 3 1 4 }'));
ENDSEC;

DATA;
#10=SHAPE_REPRESENTATION_RELATIONSHIP('','',#571,#15);
#11=SHAPE_REPRESENTATION_RELATIONSHIP('','',#572,#16);
#12=SHAPE_REPRESENTATION_RELATIONSHIP('','',#573,#17);
#13=SHAPE_REPRESENTATION_RELATIONSHIP('','',#574,#18);
#14=SHAPE_REPRESENTATION_RELATIONSHIP('','',#575,#19);
#15=ADVANCED_BREP_SHAPE_REPRESENTATION('',(#561),#933);
#16=ADVANCED_BREP_SHAPE_REPRESENTATION('',(#562),#934);
#17=ADVANCED_BREP_SHAPE_REPRESENTATION('',(#563),#935);
#18=ADVANCED_BREP_SHAPE_REPRESENTATION('',(#564),#936);
#19=ADVANCED_BREP_SHAPE_REPRESENTATION('',(#565),#937);
#20=CYLINDRICAL_SURFACE('',#585,0.0288887270810746);
#21=CYLINDRICAL_SURFACE('',#589,0.0335);
#22=CYLINDRICAL_SURFACE('',#590,0.0263887270810746);
#23=CYLINDRICAL_SURFACE('',#595,0.15);
#24=CYLINDRICAL_SURFACE('',#603,0.15);
#25=CYLINDRICAL_SURFACE('',#609,0.1475);
#26=CIRCLE('',#581,0.0335);
#27=CIRCLE('',#583,0.0288887270810746);
#28=CIRCLE('',#584,0.0335);
#29=CIRCLE('',#586,0.0288887270810746);
#30=CIRCLE('',#588,0.0263887270810746);
#31=CIRCLE('',#591,0.0263887270810746);
#32=CIRCLE('',#596,0.15);
#33=CIRCLE('',#597,0.15);
#34=CIRCLE('',#604,0.15);
#35=CIRCLE('',#605,0.15);
#36=CIRCLE('',#607,0.1475);
#37=CIRCLE('',#610,0.1475);
#38=ORIENTED_EDGE('',*,*,#162,.F.);
#39=ORIENTED_EDGE('',*,*,#163,.F.);
#40=ORIENTED_EDGE('',*,*,#164,.T.);
#41=ORIENTED_EDGE('',*,*,#165,.T.);
#42=ORIENTED_EDGE('',*,*,#166,.F.);
#43=ORIENTED_EDGE('',*,*,#167,.T.);
#44=ORIENTED_EDGE('',*,*,#168,.T.);
#45=ORIENTED_EDGE('',*,*,#163,.T.);
#46=ORIENTED_EDGE('',*,*,#169,.F.);
#47=ORIENTED_EDGE('',*,*,#170,.T.);
#48=ORIENTED_EDGE('',*,*,#171,.T.);
#49=ORIENTED_EDGE('',*,*,#165,.F.);
#50=ORIENTED_EDGE('',*,*,#172,.T.);
#51=ORIENTED_EDGE('',*,*,#169,.T.);
#52=ORIENTED_EDGE('',*,*,#164,.F.);
#53=ORIENTED_EDGE('',*,*,#168,.F.);
#54=ORIENTED_EDGE('',*,*,#173,.F.);
#55=ORIENTED_EDGE('',*,*,#171,.F.);
#56=ORIENTED_EDGE('',*,*,#174,.T.);
#57=ORIENTED_EDGE('',*,*,#166,.T.);
#58=ORIENTED_EDGE('',*,*,#162,.T.);
#59=ORIENTED_EDGE('',*,*,#175,.F.);
#60=ORIENTED_EDGE('',*,*,#173,.T.);
#61=ORIENTED_EDGE('',*,*,#176,.F.);
#62=ORIENTED_EDGE('',*,*,#175,.T.);
#63=ORIENTED_EDGE('',*,*,#174,.F.);
#64=ORIENTED_EDGE('',*,*,#170,.F.);
#65=ORIENTED_EDGE('',*,*,#172,.F.);
#66=ORIENTED_EDGE('',*,*,#167,.F.);
#67=ORIENTED_EDGE('',*,*,#176,.T.);
#68=ORIENTED_EDGE('',*,*,#177,.F.);
#69=ORIENTED_EDGE('',*,*,#177,.T.);
#70=ORIENTED_EDGE('',*,*,#178,.F.);
#71=ORIENTED_EDGE('',*,*,#179,.T.);
#72=ORIENTED_EDGE('',*,*,#180,.T.);
#73=ORIENTED_EDGE('',*,*,#181,.F.);
#74=ORIENTED_EDGE('',*,*,#182,.F.);
#75=ORIENTED_EDGE('',*,*,#180,.F.);
#76=ORIENTED_EDGE('',*,*,#183,.T.);
#77=ORIENTED_EDGE('',*,*,#184,.T.);
#78=ORIENTED_EDGE('',*,*,#185,.F.);
#79=ORIENTED_EDGE('',*,*,#186,.T.);
#80=ORIENTED_EDGE('',*,*,#187,.T.);
#81=ORIENTED_EDGE('',*,*,#184,.F.);
#82=ORIENTED_EDGE('',*,*,#179,.F.);
#83=ORIENTED_EDGE('',*,*,#188,.T.);
#84=ORIENTED_EDGE('',*,*,#185,.T.);
#85=ORIENTED_EDGE('',*,*,#183,.F.);
#86=ORIENTED_EDGE('',*,*,#189,.F.);
#87=ORIENTED_EDGE('',*,*,#181,.T.);
#88=ORIENTED_EDGE('',*,*,#182,.T.);
#89=ORIENTED_EDGE('',*,*,#187,.F.);
#90=ORIENTED_EDGE('',*,*,#178,.T.);
#91=ORIENTED_EDGE('',*,*,#189,.T.);
#92=ORIENTED_EDGE('',*,*,#186,.F.);
#93=ORIENTED_EDGE('',*,*,#188,.F.);
#94=ORIENTED_EDGE('',*,*,#190,.F.);
#95=ORIENTED_EDGE('',*,*,#191,.T.);
#96=ORIENTED_EDGE('',*,*,#192,.F.);
#97=ORIENTED_EDGE('',*,*,#190,.T.);
#98=ORIENTED_EDGE('',*,*,#191,.F.);
#99=ORIENTED_EDGE('',*,*,#192,.T.);
#100=ORIENTED_EDGE('',*,*,#193,.F.);
#101=ORIENTED_EDGE('',*,*,#193,.T.);
#102=ORIENTED_EDGE('',*,*,#194,.F.);
#103=ORIENTED_EDGE('',*,*,#195,.T.);
#104=ORIENTED_EDGE('',*,*,#196,.T.);
#105=ORIENTED_EDGE('',*,*,#197,.T.);
#106=ORIENTED_EDGE('',*,*,#198,.F.);
#107=ORIENTED_EDGE('',*,*,#199,.F.);
#108=ORIENTED_EDGE('',*,*,#200,.T.);
#109=ORIENTED_EDGE('',*,*,#201,.T.);
#110=ORIENTED_EDGE('',*,*,#196,.F.);
#111=ORIENTED_EDGE('',*,*,#202,.F.);
#112=ORIENTED_EDGE('',*,*,#203,.F.);
#113=ORIENTED_EDGE('',*,*,#199,.T.);
#114=ORIENTED_EDGE('',*,*,#204,.T.);
#115=ORIENTED_EDGE('',*,*,#205,.F.);
#116=ORIENTED_EDGE('',*,*,#206,.T.);
#117=ORIENTED_EDGE('',*,*,#207,.F.);
#118=ORIENTED_EDGE('',*,*,#197,.F.);
#119=ORIENTED_EDGE('',*,*,#205,.T.);
#120=ORIENTED_EDGE('',*,*,#208,.T.);
#121=ORIENTED_EDGE('',*,*,#194,.T.);
#122=ORIENTED_EDGE('',*,*,#207,.T.);
#123=ORIENTED_EDGE('',*,*,#209,.F.);
#124=ORIENTED_EDGE('',*,*,#201,.F.);
#125=ORIENTED_EDGE('',*,*,#210,.T.);
#126=ORIENTED_EDGE('',*,*,#198,.T.);
#127=ORIENTED_EDGE('',*,*,#209,.T.);
#128=ORIENTED_EDGE('',*,*,#206,.F.);
#129=ORIENTED_EDGE('',*,*,#204,.F.);
#130=ORIENTED_EDGE('',*,*,#203,.T.);
#131=ORIENTED_EDGE('',*,*,#211,.F.);
#132=ORIENTED_EDGE('',*,*,#210,.F.);
#133=ORIENTED_EDGE('',*,*,#200,.F.);
#134=ORIENTED_EDGE('',*,*,#195,.F.);
#135=ORIENTED_EDGE('',*,*,#208,.F.);
#136=ORIENTED_EDGE('',*,*,#211,.T.);
#137=ORIENTED_EDGE('',*,*,#202,.T.);
#138=ORIENTED_EDGE('',*,*,#212,.F.);
#139=ORIENTED_EDGE('',*,*,#213,.F.);
#140=ORIENTED_EDGE('',*,*,#214,.T.);
#141=ORIENTED_EDGE('',*,*,#215,.T.);
#142=ORIENTED_EDGE('',*,*,#216,.T.);
#143=ORIENTED_EDGE('',*,*,#217,.F.);
#144=ORIENTED_EDGE('',*,*,#218,.F.);
#145=ORIENTED_EDGE('',*,*,#213,.T.);
#146=ORIENTED_EDGE('',*,*,#219,.T.);
#147=ORIENTED_EDGE('',*,*,#220,.F.);
#148=ORIENTED_EDGE('',*,*,#221,.F.);
#149=ORIENTED_EDGE('',*,*,#217,.T.);
#150=ORIENTED_EDGE('',*,*,#222,.F.);
#151=ORIENTED_EDGE('',*,*,#215,.F.);
#152=ORIENTED_EDGE('',*,*,#223,.T.);
#153=ORIENTED_EDGE('',*,*,#220,.T.);
#154=ORIENTED_EDGE('',*,*,#214,.F.);
#155=ORIENTED_EDGE('',*,*,#218,.T.);
#156=ORIENTED_EDGE('',*,*,#221,.T.);
#157=ORIENTED_EDGE('',*,*,#223,.F.);
#158=ORIENTED_EDGE('',*,*,#212,.T.);
#159=ORIENTED_EDGE('',*,*,#222,.T.);
#160=ORIENTED_EDGE('',*,*,#219,.F.);
#161=ORIENTED_EDGE('',*,*,#216,.F.);
#162=EDGE_CURVE('',#224,#225,#268,.T.);
#163=EDGE_CURVE('',#226,#224,#269,.T.);
#164=EDGE_CURVE('',#226,#227,#270,.T.);
#165=EDGE_CURVE('',#227,#225,#271,.T.);
#166=EDGE_CURVE('',#228,#224,#272,.T.);
#167=EDGE_CURVE('',#228,#229,#273,.F.);
#168=EDGE_CURVE('',#229,#226,#274,.T.);
#169=EDGE_CURVE('',#230,#227,#275,.T.);
#170=EDGE_CURVE('',#230,#231,#276,.T.);
#171=EDGE_CURVE('',#231,#225,#277,.T.);
#172=EDGE_CURVE('',#229,#230,#26,.T.);
#173=EDGE_CURVE('',#232,#232,#27,.T.);
#174=EDGE_CURVE('',#231,#228,#28,.F.);
#175=EDGE_CURVE('',#233,#233,#29,.T.);
#176=EDGE_CURVE('',#234,#234,#30,.T.);
#177=EDGE_CURVE('',#235,#235,#31,.F.);
#178=EDGE_CURVE('',#236,#237,#278,.T.);
#179=EDGE_CURVE('',#236,#238,#279,.T.);
#180=EDGE_CURVE('',#238,#239,#280,.T.);
#181=EDGE_CURVE('',#237,#239,#281,.T.);
#182=EDGE_CURVE('',#239,#240,#32,.T.);
#183=EDGE_CURVE('',#238,#241,#33,.T.);
#184=EDGE_CURVE('',#241,#240,#282,.T.);
#185=EDGE_CURVE('',#242,#241,#283,.T.);
#186=EDGE_CURVE('',#242,#243,#284,.T.);
#187=EDGE_CURVE('',#243,#240,#285,.T.);
#188=EDGE_CURVE('',#236,#242,#286,.T.);
#189=EDGE_CURVE('',#237,#243,#287,.T.);
#190=EDGE_CURVE('',#244,#244,#34,.T.);
#191=EDGE_CURVE('',#245,#245,#35,.T.);
#192=EDGE_CURVE('',#246,#246,#36,.T.);
#193=EDGE_CURVE('',#247,#247,#37,.T.);
#194=EDGE_CURVE('',#248,#249,#288,.T.);
#195=EDGE_CURVE('',#248,#250,#289,.T.);
#196=EDGE_CURVE('',#250,#251,#290,.T.);
#197=EDGE_CURVE('',#251,#249,#291,.T.);
#198=EDGE_CURVE('',#252,#253,#292,.T.);
#199=EDGE_CURVE('',#254,#252,#293,.T.);
#200=EDGE_CURVE('',#254,#255,#294,.T.);
#201=EDGE_CURVE('',#255,#253,#295,.T.);
#202=EDGE_CURVE('',#256,#250,#296,.T.);
#203=EDGE_CURVE('',#254,#256,#297,.T.);
#204=EDGE_CURVE('',#252,#257,#298,.T.);
#205=EDGE_CURVE('',#251,#257,#299,.T.);
#206=EDGE_CURVE('',#257,#258,#300,.T.);
#207=EDGE_CURVE('',#249,#258,#301,.T.);
#208=EDGE_CURVE('',#259,#248,#302,.T.);
#209=EDGE_CURVE('',#253,#258,#303,.T.);
#210=EDGE_CURVE('',#255,#259,#304,.T.);
#211=EDGE_CURVE('',#259,#256,#305,.T.);
#212=EDGE_CURVE('',#260,#261,#306,.T.);
#213=EDGE_CURVE('',#262,#260,#307,.T.);
#214=EDGE_CURVE('',#262,#263,#308,.T.);
#215=EDGE_CURVE('',#263,#261,#309,.T.);
#216=EDGE_CURVE('',#260,#264,#310,.T.);
#217=EDGE_CURVE('',#265,#264,#311,.T.);
#218=EDGE_CURVE('',#262,#265,#312,.T.);
#219=EDGE_CURVE('',#264,#266,#313,.T.);
#220=EDGE_CURVE('',#267,#266,#314,.T.);
#221=EDGE_CURVE('',#265,#267,#315,.T.);
#222=EDGE_CURVE('',#261,#266,#316,.T.);
#223=EDGE_CURVE('',#263,#267,#317,.T.);
#224=VERTEX_POINT('',#785);
#225=VERTEX_POINT('',#786);
#226=VERTEX_POINT('',#788);
#227=VERTEX_POINT('',#790);
#228=VERTEX_POINT('',#794);
#229=VERTEX_POINT('',#796);
#230=VERTEX_POINT('',#800);
#231=VERTEX_POINT('',#802);
#232=VERTEX_POINT('',#808);
#233=VERTEX_POINT('',#812);
#234=VERTEX_POINT('',#815);
#235=VERTEX_POINT('',#819);
#236=VERTEX_POINT('',#824);
#237=VERTEX_POINT('',#825);
#238=VERTEX_POINT('',#827);
#239=VERTEX_POINT('',#829);
#240=VERTEX_POINT('',#833);
#241=VERTEX_POINT('',#835);
#242=VERTEX_POINT('',#839);
#243=VERTEX_POINT('',#841);
#244=VERTEX_POINT('',#851);
#245=VERTEX_POINT('',#853);
#246=VERTEX_POINT('',#856);
#247=VERTEX_POINT('',#860);
#248=VERTEX_POINT('',#865);
#249=VERTEX_POINT('',#866);
#250=VERTEX_POINT('',#868);
#251=VERTEX_POINT('',#870);
#252=VERTEX_POINT('',#874);
#253=VERTEX_POINT('',#875);
#254=VERTEX_POINT('',#877);
#255=VERTEX_POINT('',#879);
#256=VERTEX_POINT('',#883);
#257=VERTEX_POINT('',#886);
#258=VERTEX_POINT('',#890);
#259=VERTEX_POINT('',#894);
#260=VERTEX_POINT('',#904);
#261=VERTEX_POINT('',#905);
#262=VERTEX_POINT('',#907);
#263=VERTEX_POINT('',#909);
#264=VERTEX_POINT('',#913);
#265=VERTEX_POINT('',#915);
#266=VERTEX_POINT('',#919);
#267=VERTEX_POINT('',#921);
#268=LINE('',#784,#318);
#269=LINE('',#787,#319);
#270=LINE('',#789,#320);
#271=LINE('',#791,#321);
#272=LINE('',#793,#322);
#273=LINE('',#795,#323);
#274=LINE('',#797,#324);
#275=LINE('',#799,#325);
#276=LINE('',#801,#326);
#277=LINE('',#803,#327);
#278=LINE('',#823,#328);
#279=LINE('',#826,#329);
#280=LINE('',#828,#330);
#281=LINE('',#830,#331);
#282=LINE('',#836,#332);
#283=LINE('',#838,#333);
#284=LINE('',#840,#334);
#285=LINE('',#842,#335);
#286=LINE('',#844,#336);
#287=LINE('',#846,#337);
#288=LINE('',#864,#338);
#289=LINE('',#867,#339);
#290=LINE('',#869,#340);
#291=LINE('',#871,#341);
#292=LINE('',#873,#342);
#293=LINE('',#876,#343);
#294=LINE('',#878,#344);
#295=LINE('',#880,#345);
#296=LINE('',#882,#346);
#297=LINE('',#884,#347);
#298=LINE('',#885,#348);
#299=LINE('',#887,#349);
#300=LINE('',#889,#350);
#301=LINE('',#891,#351);
#302=LINE('',#893,#352);
#303=LINE('',#895,#353);
#304=LINE('',#896,#354);
#305=LINE('',#899,#355);
#306=LINE('',#903,#356);
#307=LINE('',#906,#357);
#308=LINE('',#908,#358);
#309=LINE('',#910,#359);
#310=LINE('',#912,#360);
#311=LINE('',#914,#361);
#312=LINE('',#916,#362);
#313=LINE('',#918,#363);
#314=LINE('',#920,#364);
#315=LINE('',#922,#365);
#316=LINE('',#924,#366);
#317=LINE('',#925,#367);
#318=VECTOR('',#632,1.);
#319=VECTOR('',#633,1.);
#320=VECTOR('',#634,1.);
#321=VECTOR('',#635,1.);
#322=VECTOR('',#638,1.);
#323=VECTOR('',#639,1.);
#324=VECTOR('',#640,1.);
#325=VECTOR('',#643,1.);
#326=VECTOR('',#644,1.);
#327=VECTOR('',#645,1.);
#328=VECTOR('',#676,1.);
#329=VECTOR('',#677,1.);
#330=VECTOR('',#678,1.);
#331=VECTOR('',#679,1.);
#332=VECTOR('',#686,1.);
#333=VECTOR('',#689,1.);
#334=VECTOR('',#690,1.);
#335=VECTOR('',#691,1.);
#336=VECTOR('',#694,1.);
#337=VECTOR('',#697,1.);
#338=VECTOR('',#724,1.);
#339=VECTOR('',#725,1.);
#340=VECTOR('',#726,1.);
#341=VECTOR('',#727,1.);
#342=VECTOR('',#730,1.);
#343=VECTOR('',#731,1.);
#344=VECTOR('',#732,1.);
#345=VECTOR('',#733,1.);
#346=VECTOR('',#736,1.);
#347=VECTOR('',#737,1.);
#348=VECTOR('',#738,1.);
#349=VECTOR('',#739,1.);
#350=VECTOR('',#742,1.);
#351=VECTOR('',#743,1.);
#352=VECTOR('',#746,1.);
#353=VECTOR('',#747,1.);
#354=VECTOR('',#748,1.);
#355=VECTOR('',#753,1.);
#356=VECTOR('',#760,1.);
#357=VECTOR('',#761,1.);
#358=VECTOR('',#762,1.);
#359=VECTOR('',#763,1.);
#360=VECTOR('',#766,1.);
#361=VECTOR('',#767,1.);
#362=VECTOR('',#768,1.);
#363=VECTOR('',#771,1.);
#364=VECTOR('',#772,1.);
#365=VECTOR('',#773,1.);
#366=VECTOR('',#776,1.);
#367=VECTOR('',#777,1.);
#368=EDGE_LOOP('',(#38,#39,#40,#41));
#369=EDGE_LOOP('',(#42,#43,#44,#45));
#370=EDGE_LOOP('',(#46,#47,#48,#49));
#371=EDGE_LOOP('',(#50,#51,#52,#53));
#372=EDGE_LOOP('',(#54));
#373=EDGE_LOOP('',(#55,#56,#57,#58));
#374=EDGE_LOOP('',(#59));
#375=EDGE_LOOP('',(#60));
#376=EDGE_LOOP('',(#61));
#377=EDGE_LOOP('',(#62));
#378=EDGE_LOOP('',(#63,#64,#65,#66));
#379=EDGE_LOOP('',(#67));
#380=EDGE_LOOP('',(#68));
#381=EDGE_LOOP('',(#69));
#382=EDGE_LOOP('',(#70,#71,#72,#73));
#383=EDGE_LOOP('',(#74,#75,#76,#77));
#384=EDGE_LOOP('',(#78,#79,#80,#81));
#385=EDGE_LOOP('',(#82,#83,#84,#85));
#386=EDGE_LOOP('',(#86,#87,#88,#89));
#387=EDGE_LOOP('',(#90,#91,#92,#93));
#388=EDGE_LOOP('',(#94));
#389=EDGE_LOOP('',(#95));
#390=EDGE_LOOP('',(#96));
#391=EDGE_LOOP('',(#97));
#392=EDGE_LOOP('',(#98));
#393=EDGE_LOOP('',(#99));
#394=EDGE_LOOP('',(#100));
#395=EDGE_LOOP('',(#101));
#396=EDGE_LOOP('',(#102,#103,#104,#105));
#397=EDGE_LOOP('',(#106,#107,#108,#109));
#398=EDGE_LOOP('',(#110,#111,#112,#113,#114,#115));
#399=EDGE_LOOP('',(#116,#117,#118,#119));
#400=EDGE_LOOP('',(#120,#121,#122,#123,#124,#125));
#401=EDGE_LOOP('',(#126,#127,#128,#129));
#402=EDGE_LOOP('',(#130,#131,#132,#133));
#403=EDGE_LOOP('',(#134,#135,#136,#137));
#404=EDGE_LOOP('',(#138,#139,#140,#141));
#405=EDGE_LOOP('',(#142,#143,#144,#145));
#406=EDGE_LOOP('',(#146,#147,#148,#149));
#407=EDGE_LOOP('',(#150,#151,#152,#153));
#408=EDGE_LOOP('',(#154,#155,#156,#157));
#409=EDGE_LOOP('',(#158,#159,#160,#161));
#410=FACE_BOUND('',#368,.T.);
#411=FACE_BOUND('',#369,.T.);
#412=FACE_BOUND('',#370,.T.);
#413=FACE_BOUND('',#371,.T.);
#414=FACE_BOUND('',#372,.T.);
#415=FACE_BOUND('',#373,.T.);
#416=FACE_BOUND('',#374,.T.);
#417=FACE_BOUND('',#375,.T.);
#418=FACE_BOUND('',#376,.T.);
#419=FACE_BOUND('',#377,.T.);
#420=FACE_BOUND('',#378,.T.);
#421=FACE_BOUND('',#379,.T.);
#422=FACE_BOUND('',#380,.T.);
#423=FACE_BOUND('',#381,.T.);
#424=FACE_BOUND('',#382,.T.);
#425=FACE_BOUND('',#383,.T.);
#426=FACE_BOUND('',#384,.T.);
#427=FACE_BOUND('',#385,.T.);
#428=FACE_BOUND('',#386,.T.);
#429=FACE_BOUND('',#387,.T.);
#430=FACE_BOUND('',#388,.T.);
#431=FACE_BOUND('',#389,.T.);
#432=FACE_BOUND('',#390,.T.);
#433=FACE_BOUND('',#391,.T.);
#434=FACE_BOUND('',#392,.T.);
#435=FACE_BOUND('',#393,.T.);
#436=FACE_BOUND('',#394,.T.);
#437=FACE_BOUND('',#395,.T.);
#438=FACE_BOUND('',#396,.T.);
#439=FACE_BOUND('',#397,.T.);
#440=FACE_BOUND('',#398,.T.);
#441=FACE_BOUND('',#399,.T.);
#442=FACE_BOUND('',#400,.T.);
#443=FACE_BOUND('',#401,.T.);
#444=FACE_BOUND('',#402,.T.);
#445=FACE_BOUND('',#403,.T.);
#446=FACE_BOUND('',#404,.T.);
#447=FACE_BOUND('',#405,.T.);
#448=FACE_BOUND('',#406,.T.);
#449=FACE_BOUND('',#407,.T.);
#450=FACE_BOUND('',#408,.T.);
#451=FACE_BOUND('',#409,.T.);
#452=PLANE('',#577);
#453=PLANE('',#578);
#454=PLANE('',#579);
#455=PLANE('',#580);
#456=PLANE('',#582);
#457=PLANE('',#587);
#458=PLANE('',#592);
#459=PLANE('',#594);
#460=PLANE('',#598);
#461=PLANE('',#599);
#462=PLANE('',#600);
#463=PLANE('',#601);
#464=PLANE('',#606);
#465=PLANE('',#608);
#466=PLANE('',#611);
#467=PLANE('',#613);
#468=PLANE('',#614);
#469=PLANE('',#615);
#470=PLANE('',#616);
#471=PLANE('',#617);
#472=PLANE('',#618);
#473=PLANE('',#619);
#474=PLANE('',#620);
#475=PLANE('',#622);
#476=PLANE('',#623);
#477=PLANE('',#624);
#478=PLANE('',#625);
#479=PLANE('',#626);
#480=PLANE('',#627);
#481=ADVANCED_FACE('',(#410),#452,.T.);
#482=ADVANCED_FACE('',(#411),#453,.T.);
#483=ADVANCED_FACE('',(#412),#454,.F.);
#484=ADVANCED_FACE('',(#413),#455,.T.);
#485=ADVANCED_FACE('',(#414,#415),#456,.F.);
#486=ADVANCED_FACE('',(#416,#417),#20,.T.);
#487=ADVANCED_FACE('',(#418,#419),#457,.T.);
#488=ADVANCED_FACE('',(#420),#21,.T.);
#489=ADVANCED_FACE('',(#421,#422),#22,.F.);
#490=ADVANCED_FACE('',(#423),#458,.F.);
#491=ADVANCED_FACE('',(#424),#459,.T.);
#492=ADVANCED_FACE('',(#425),#23,.F.);
#493=ADVANCED_FACE('',(#426),#460,.F.);
#494=ADVANCED_FACE('',(#427),#461,.F.);
#495=ADVANCED_FACE('',(#428),#462,.T.);
#496=ADVANCED_FACE('',(#429),#463,.F.);
#497=ADVANCED_FACE('',(#430,#431),#24,.T.);
#498=ADVANCED_FACE('',(#432,#433),#464,.T.);
#499=ADVANCED_FACE('',(#434),#465,.F.);
#500=ADVANCED_FACE('',(#435,#436),#25,.F.);
#501=ADVANCED_FACE('',(#437),#466,.T.);
#502=ADVANCED_FACE('',(#438),#467,.T.);
#503=ADVANCED_FACE('',(#439),#468,.T.);
#504=ADVANCED_FACE('',(#440),#469,.F.);
#505=ADVANCED_FACE('',(#441),#470,.F.);
#506=ADVANCED_FACE('',(#442),#471,.T.);
#507=ADVANCED_FACE('',(#443),#472,.F.);
#508=ADVANCED_FACE('',(#444),#473,.T.);
#509=ADVANCED_FACE('',(#445),#474,.T.);
#510=ADVANCED_FACE('',(#446),#475,.T.);
#511=ADVANCED_FACE('',(#447),#476,.F.);
#512=ADVANCED_FACE('',(#448),#477,.F.);
#513=ADVANCED_FACE('',(#449),#478,.T.);
#514=ADVANCED_FACE('',(#450),#479,.T.);
#515=ADVANCED_FACE('',(#451),#480,.F.);
#516=CLOSED_SHELL('',(#481,#482,#483,#484,#485,#486,#487,#488,#489,#490));
#517=CLOSED_SHELL('',(#491,#492,#493,#494,#495,#496));
#518=CLOSED_SHELL('',(#497,#498,#499,#500,#501));
#519=CLOSED_SHELL('',(#502,#503,#504,#505,#506,#507,#508,#509));
#520=CLOSED_SHELL('',(#510,#511,#512,#513,#514,#515));
#521=STYLED_ITEM('',(#526),#561);
#522=STYLED_ITEM('',(#527),#562);
#523=STYLED_ITEM('',(#528),#563);
#524=STYLED_ITEM('',(#529),#564);
#525=STYLED_ITEM('',(#530),#565);
#526=PRESENTATION_STYLE_ASSIGNMENT((#531));
#527=PRESENTATION_STYLE_ASSIGNMENT((#532));
#528=PRESENTATION_STYLE_ASSIGNMENT((#533));
#529=PRESENTATION_STYLE_ASSIGNMENT((#534));
#530=PRESENTATION_STYLE_ASSIGNMENT((#535));
#531=SURFACE_STYLE_USAGE(.BOTH.,#536);
#532=SURFACE_STYLE_USAGE(.BOTH.,#537);
#533=SURFACE_STYLE_USAGE(.BOTH.,#538);
#534=SURFACE_STYLE_USAGE(.BOTH.,#539);
#535=SURFACE_STYLE_USAGE(.BOTH.,#540);
#536=SURFACE_SIDE_STYLE('',(#541));
#537=SURFACE_SIDE_STYLE('',(#542));
#538=SURFACE_SIDE_STYLE('',(#543));
#539=SURFACE_SIDE_STYLE('',(#544));
#540=SURFACE_SIDE_STYLE('',(#545));
#541=SURFACE_STYLE_FILL_AREA(#546);
#542=SURFACE_STYLE_FILL_AREA(#547);
#543=SURFACE_STYLE_FILL_AREA(#548);
#544=SURFACE_STYLE_FILL_AREA(#549);
#545=SURFACE_STYLE_FILL_AREA(#550);
#546=FILL_AREA_STYLE('',(#551));
#547=FILL_AREA_STYLE('',(#552));
#548=FILL_AREA_STYLE('',(#553));
#549=FILL_AREA_STYLE('',(#554));
#550=FILL_AREA_STYLE('',(#555));
#551=FILL_AREA_STYLE_COLOUR('',#556);
#552=FILL_AREA_STYLE_COLOUR('',#557);
#553=FILL_AREA_STYLE_COLOUR('',#558);
#554=FILL_AREA_STYLE_COLOUR('',#559);
#555=FILL_AREA_STYLE_COLOUR('',#560);
#556=COLOUR_RGB('',0.301960784313725,0.301960784313725,0.301960784313725);
#557=COLOUR_RGB('',0.2,0.2,0.2);
#558=COLOUR_RGB('',0.0862745098039216,0.32156862745098,0.580392156862745);
#559=COLOUR_RGB('',0.647058823529412,0.647058823529412,0.647058823529412);
#560=COLOUR_RGB('',0.917647058823529,0.725490196078431,0.490196078431373);
#561=MANIFOLD_SOLID_BREP('office chair arm',#516);
#562=MANIFOLD_SOLID_BREP('heater',#517);
#563=MANIFOLD_SOLID_BREP('bucket',#518);
#564=MANIFOLD_SOLID_BREP('right angle bracket',#519);
#565=MANIFOLD_SOLID_BREP('plank',#520);
#566=SHAPE_DEFINITION_REPRESENTATION(#958,#571);
#567=SHAPE_DEFINITION_REPRESENTATION(#959,#572);
#568=SHAPE_DEFINITION_REPRESENTATION(#960,#573);
#569=SHAPE_DEFINITION_REPRESENTATION(#961,#574);
#570=SHAPE_DEFINITION_REPRESENTATION(#962,#575);
#571=SHAPE_REPRESENTATION('office chair arm',(#576),#933);
#572=SHAPE_REPRESENTATION('heater',(#593),#934);
#573=SHAPE_REPRESENTATION('bucket',(#602),#935);
#574=SHAPE_REPRESENTATION('right angle bracket',(#612),#936);
#575=SHAPE_REPRESENTATION('plank',(#621),#937);
#576=AXIS2_PLACEMENT_3D('',#782,#628,#629);
#577=AXIS2_PLACEMENT_3D('',#783,#630,#631);
#578=AXIS2_PLACEMENT_3D('',#792,#636,#637);
#579=AXIS2_PLACEMENT_3D('',#798,#641,#642);
#580=AXIS2_PLACEMENT_3D('',#804,#646,#647);
#581=AXIS2_PLACEMENT_3D('',#805,#648,#649);
#582=AXIS2_PLACEMENT_3D('',#806,#650,#651);
#583=AXIS2_PLACEMENT_3D('',#807,#652,#653);
#584=AXIS2_PLACEMENT_3D('',#809,#654,#655);
#585=AXIS2_PLACEMENT_3D('',#810,#656,#657);
#586=AXIS2_PLACEMENT_3D('',#811,#658,#659);
#587=AXIS2_PLACEMENT_3D('',#813,#660,#661);
#588=AXIS2_PLACEMENT_3D('',#814,#662,#663);
#589=AXIS2_PLACEMENT_3D('',#816,#664,#665);
#590=AXIS2_PLACEMENT_3D('',#817,#666,#667);
#591=AXIS2_PLACEMENT_3D('',#818,#668,#669);
#592=AXIS2_PLACEMENT_3D('',#820,#670,#671);
#593=AXIS2_PLACEMENT_3D('',#821,#672,#673);
#594=AXIS2_PLACEMENT_3D('',#822,#674,#675);
#595=AXIS2_PLACEMENT_3D('',#831,#680,#681);
#596=AXIS2_PLACEMENT_3D('',#832,#682,#683);
#597=AXIS2_PLACEMENT_3D('',#834,#684,#685);
#598=AXIS2_PLACEMENT_3D('',#837,#687,#688);
#599=AXIS2_PLACEMENT_3D('',#843,#692,#693);
#600=AXIS2_PLACEMENT_3D('',#845,#695,#696);
#601=AXIS2_PLACEMENT_3D('',#847,#698,#699);
#602=AXIS2_PLACEMENT_3D('',#848,#700,#701);
#603=AXIS2_PLACEMENT_3D('',#849,#702,#703);
#604=AXIS2_PLACEMENT_3D('',#850,#704,#705);
#605=AXIS2_PLACEMENT_3D('',#852,#706,#707);
#606=AXIS2_PLACEMENT_3D('',#854,#708,#709);
#607=AXIS2_PLACEMENT_3D('',#855,#710,#711);
#608=AXIS2_PLACEMENT_3D('',#857,#712,#713);
#609=AXIS2_PLACEMENT_3D('',#858,#714,#715);
#610=AXIS2_PLACEMENT_3D('',#859,#716,#717);
#611=AXIS2_PLACEMENT_3D('',#861,#718,#719);
#612=AXIS2_PLACEMENT_3D('',#862,#720,#721);
#613=AXIS2_PLACEMENT_3D('',#863,#722,#723);
#614=AXIS2_PLACEMENT_3D('',#872,#728,#729);
#615=AXIS2_PLACEMENT_3D('',#881,#734,#735);
#616=AXIS2_PLACEMENT_3D('',#888,#740,#741);
#617=AXIS2_PLACEMENT_3D('',#892,#744,#745);
#618=AXIS2_PLACEMENT_3D('',#897,#749,#750);
#619=AXIS2_PLACEMENT_3D('',#898,#751,#752);
#620=AXIS2_PLACEMENT_3D('',#900,#754,#755);
#621=AXIS2_PLACEMENT_3D('',#901,#756,#757);
#622=AXIS2_PLACEMENT_3D('',#902,#758,#759);
#623=AXIS2_PLACEMENT_3D('',#911,#764,#765);
#624=AXIS2_PLACEMENT_3D('',#917,#769,#770);
#625=AXIS2_PLACEMENT_3D('',#923,#774,#775);
#626=AXIS2_PLACEMENT_3D('',#926,#778,#779);
#627=AXIS2_PLACEMENT_3D('',#927,#780,#781);
#628=DIRECTION('',(0.,0.,1.));
#629=DIRECTION('',(1.,0.,0.));
#630=DIRECTION('',(0.,0.,-1.));
#631=DIRECTION('',(-1.,0.,0.));
#632=DIRECTION('',(-1.,0.,0.));
#633=DIRECTION('',(0.,1.,0.));
#634=DIRECTION('',(-1.,0.,0.));
#635=DIRECTION('',(0.,1.,0.));
#636=DIRECTION('',(1.,0.,0.));
#637=DIRECTION('',(0.,0.,-1.));
#638=DIRECTION('',(0.,0.,-1.));
#639=DIRECTION('',(0.,1.,0.));
#640=DIRECTION('',(0.,0.,-1.));
#641=DIRECTION('',(1.,0.,0.));
#642=DIRECTION('',(0.,0.,-1.));
#643=DIRECTION('',(0.,0.,-1.));
#644=DIRECTION('',(0.,1.,0.));
#645=DIRECTION('',(0.,0.,-1.));
#646=DIRECTION('',(0.,-1.,0.));
#647=DIRECTION('',(0.,0.,-1.));
#648=DIRECTION('',(0.,-1.,0.));
#649=DIRECTION('',(0.,0.,-1.));
#650=DIRECTION('',(0.,-1.,0.));
#651=DIRECTION('',(0.,0.,-1.));
#652=DIRECTION('',(0.,1.,0.));
#653=DIRECTION('',(0.,0.,1.));
#654=DIRECTION('',(0.,-1.,0.));
#655=DIRECTION('',(0.,0.,-1.));
#656=DIRECTION('',(0.,-1.,0.));
#657=DIRECTION('',(0.,0.,-1.));
#658=DIRECTION('',(0.,1.,0.));
#659=DIRECTION('',(0.,0.,1.));
#660=DIRECTION('',(0.,1.,0.));
#661=DIRECTION('',(-1.,0.,0.));
#662=DIRECTION('',(0.,1.,0.));
#663=DIRECTION('',(0.,0.,1.));
#664=DIRECTION('',(0.,-1.,0.));
#665=DIRECTION('',(0.,0.,-1.));
#666=DIRECTION('',(0.,-1.,0.));
#667=DIRECTION('',(0.,0.,-1.));
#668=DIRECTION('',(0.,-1.,0.));
#669=DIRECTION('',(0.,0.,-1.));
#670=DIRECTION('',(0.,-1.,0.));
#671=DIRECTION('',(0.,0.,-1.));
#672=DIRECTION('',(0.,0.,1.));
#673=DIRECTION('',(1.,0.,0.));
#674=DIRECTION('',(1.,0.,0.));
#675=DIRECTION('',(0.,0.,-1.));
#676=DIRECTION('',(0.,-1.,0.));
#677=DIRECTION('',(0.,0.,1.));
#678=DIRECTION('',(0.,-1.,0.));
#679=DIRECTION('',(0.,0.,1.));
#680=DIRECTION('',(0.,-1.,0.));
#681=DIRECTION('',(0.,0.,-1.));
#682=DIRECTION('',(0.,1.,0.));
#683=DIRECTION('',(0.,0.,1.));
#684=DIRECTION('',(0.,1.,0.));
#685=DIRECTION('',(0.,0.,1.));
#686=DIRECTION('',(0.,-1.,0.));
#687=DIRECTION('',(1.,0.,0.));
#688=DIRECTION('',(0.,0.,-1.));
#689=DIRECTION('',(0.,0.,1.));
#690=DIRECTION('',(0.,-1.,0.));
#691=DIRECTION('',(0.,0.,1.));
#692=DIRECTION('',(0.,-1.,0.));
#693=DIRECTION('',(1.,0.,0.));
#694=DIRECTION('',(-1.,0.,0.));
#695=DIRECTION('',(0.,-1.,0.));
#696=DIRECTION('',(1.,0.,0.));
#697=DIRECTION('',(-1.,0.,0.));
#698=DIRECTION('',(0.,0.,1.));
#699=DIRECTION('',(1.,0.,0.));
#700=DIRECTION('',(0.,0.,1.));
#701=DIRECTION('',(1.,0.,0.));
#702=DIRECTION('',(0.,-1.,0.));
#703=DIRECTION('',(0.,0.,-1.));
#704=DIRECTION('',(0.,1.,0.));
#705=DIRECTION('',(0.,0.,1.));
#706=DIRECTION('',(0.,1.,0.));
#707=DIRECTION('',(0.,0.,1.));
#708=DIRECTION('',(0.,1.,0.));
#709=DIRECTION('',(-1.,0.,0.));
#710=DIRECTION('',(0.,1.,0.));
#711=DIRECTION('',(0.,0.,1.));
#712=DIRECTION('',(0.,1.,0.));
#713=DIRECTION('',(-1.,0.,0.));
#714=DIRECTION('',(0.,-1.,0.));
#715=DIRECTION('',(0.,0.,-1.));
#716=DIRECTION('',(0.,1.,0.));
#717=DIRECTION('',(0.,0.,1.));
#718=DIRECTION('',(0.,1.,0.));
#719=DIRECTION('',(-1.,0.,0.));
#720=DIRECTION('',(0.,0.,1.));
#721=DIRECTION('',(1.,0.,0.));
#722=DIRECTION('',(0.,0.,1.));
#723=DIRECTION('',(1.,0.,0.));
#724=DIRECTION('',(1.38777878078144E-16,1.,0.));
#725=DIRECTION('',(1.,0.,0.));
#726=DIRECTION('',(1.38777878078144E-16,1.,0.));
#727=DIRECTION('',(-1.,0.,0.));
#728=DIRECTION('',(0.,-1.,0.));
#729=DIRECTION('',(0.,0.,-1.));
#730=DIRECTION('',(-1.,0.,0.));
#731=DIRECTION('',(0.,0.,-1.));
#732=DIRECTION('',(-1.,0.,0.));
#733=DIRECTION('',(0.,0.,-1.));
#734=DIRECTION('',(-1.,1.38777878078144E-16,0.));
#735=DIRECTION('',(-1.38777878078144E-16,-1.,0.));
#736=DIRECTION('',(0.,0.,-1.));
#737=DIRECTION('',(1.38777878078144E-16,1.,0.));
#738=DIRECTION('',(1.38777878078144E-16,1.,0.));
#739=DIRECTION('',(0.,0.,-1.));
#740=DIRECTION('',(0.,-1.,0.));
#741=DIRECTION('',(0.,0.,-1.));
#742=DIRECTION('',(-1.,0.,0.));
#743=DIRECTION('',(0.,0.,-1.));
#744=DIRECTION('',(-1.,1.38777878078144E-16,0.));
#745=DIRECTION('',(-1.38777878078144E-16,-1.,0.));
#746=DIRECTION('',(0.,0.,-1.));
#747=DIRECTION('',(1.38777878078144E-16,1.,0.));
#748=DIRECTION('',(1.38777878078144E-16,1.,0.));
#749=DIRECTION('',(0.,0.,1.));
#750=DIRECTION('',(1.,0.,0.));
#751=DIRECTION('',(0.,0.,1.));
#752=DIRECTION('',(1.,0.,0.));
#753=DIRECTION('',(1.,0.,0.));
#754=DIRECTION('',(0.,1.,0.));
#755=DIRECTION('',(0.,0.,1.));
#756=DIRECTION('',(0.,0.,1.));
#757=DIRECTION('',(1.,0.,0.));
#758=DIRECTION('',(1.,6.16790569236198E-17,0.));
#759=DIRECTION('',(-6.16790569236198E-17,1.,0.));
#760=DIRECTION('',(6.16790569236198E-17,-1.,0.));
#761=DIRECTION('',(0.,0.,-1.));
#762=DIRECTION('',(6.16790569236198E-17,-1.,0.));
#763=DIRECTION('',(0.,0.,-1.));
#764=DIRECTION('',(1.11022302462516E-16,-1.,0.));
#765=DIRECTION('',(1.,1.11022302462516E-16,0.));
#766=DIRECTION('',(-1.,-1.11022302462516E-16,0.));
#767=DIRECTION('',(0.,0.,-1.));
#768=DIRECTION('',(-1.,-1.11022302462516E-16,0.));
#769=DIRECTION('',(1.,6.16790569236198E-17,0.));
#770=DIRECTION('',(-6.16790569236198E-17,1.,0.));
#771=DIRECTION('',(6.16790569236198E-17,-1.,0.));
#772=DIRECTION('',(0.,0.,-1.));
#773=DIRECTION('',(6.16790569236198E-17,-1.,0.));
#774=DIRECTION('',(2.22044604925032E-16,-1.,0.));
#775=DIRECTION('',(1.,2.22044604925032E-16,0.));
#776=DIRECTION('',(-1.,-2.22044604925032E-16,0.));
#777=DIRECTION('',(-1.,-2.22044604925032E-16,0.));
#778=DIRECTION('',(0.,0.,1.));
#779=DIRECTION('',(1.,0.,0.));
#780=DIRECTION('',(0.,0.,1.));
#781=DIRECTION('',(1.,0.,0.));
#782=CARTESIAN_POINT('',(0.,0.,0.));
#783=CARTESIAN_POINT('',(0.,-0.137132196119744,0.005));
#784=CARTESIAN_POINT('',(0.,-0.134132196119744,0.005));
#785=CARTESIAN_POINT('',(0.0335,-0.134132196119744,0.005));
#786=CARTESIAN_POINT('',(-0.0335,-0.134132196119744,0.005));
#787=CARTESIAN_POINT('',(0.0335,-0.137132196119744,0.005));
#788=CARTESIAN_POINT('',(0.0335,-0.137132196119744,0.005));
#789=CARTESIAN_POINT('',(0.,-0.137132196119744,0.005));
#790=CARTESIAN_POINT('',(-0.0335,-0.137132196119744,0.005));
#791=CARTESIAN_POINT('',(-0.0335,-0.137132196119744,0.005));
#792=CARTESIAN_POINT('',(0.0335,-0.137132196119744,0.007));
#793=CARTESIAN_POINT('',(0.0335,-0.134132196119744,0.007));
#794=CARTESIAN_POINT('',(0.0335,-0.134132196119744,0.1805));
#795=CARTESIAN_POINT('',(0.0335,-0.137132196119744,0.1805));
#796=CARTESIAN_POINT('',(0.0335,-0.137132196119744,0.1805));
#797=CARTESIAN_POINT('',(0.0335,-0.137132196119744,0.007));
#798=CARTESIAN_POINT('',(-0.0335,-0.137132196119744,0.007));
#799=CARTESIAN_POINT('',(-0.0335,-0.137132196119744,0.007));
#800=CARTESIAN_POINT('',(-0.0335,-0.137132196119744,0.1805));
#801=CARTESIAN_POINT('',(-0.0335,-0.137132196119744,0.1805));
#802=CARTESIAN_POINT('',(-0.0335,-0.134132196119744,0.1805));
#803=CARTESIAN_POINT('',(-0.0335,-0.134132196119744,0.007));
#804=CARTESIAN_POINT('',(0.,-0.137132196119744,0.007));
#805=CARTESIAN_POINT('',(0.,-0.137132196119744,0.1805));
#806=CARTESIAN_POINT('',(0.,-0.134132196119744,0.007));
#807=CARTESIAN_POINT('',(0.,-0.134132196119744,0.182496443390847));
#808=CARTESIAN_POINT('',(0.,-0.134132196119744,0.211385170471921));
#809=CARTESIAN_POINT('',(0.,-0.134132196119744,0.1805));
#810=CARTESIAN_POINT('',(0.,0.165867803880256,0.182496443390847));
#811=CARTESIAN_POINT('',(0.,0.165867803880256,0.182496443390847));
#812=CARTESIAN_POINT('',(0.,0.165867803880256,0.211385170471921));
#813=CARTESIAN_POINT('',(0.,0.165867803880256,0.168748221695423));
#814=CARTESIAN_POINT('',(0.,0.165867803880256,0.182496443390847));
#815=CARTESIAN_POINT('',(0.,0.165867803880256,0.208885170471921));
#816=CARTESIAN_POINT('',(0.,-0.137132196119744,0.1805));
#817=CARTESIAN_POINT('',(0.,0.165867803880256,0.182496443390847));
#818=CARTESIAN_POINT('',(0.,-0.134632196119744,0.182496443390847));
#819=CARTESIAN_POINT('',(0.,-0.134632196119744,0.156107716309772));
#820=CARTESIAN_POINT('',(0.,-0.134632196119744,0.007));
#821=CARTESIAN_POINT('',(0.,0.,0.));
#822=CARTESIAN_POINT('',(0.035209558904171,-0.0191321961197441,0.0530101656913757));
#823=CARTESIAN_POINT('',(0.035209558904171,-0.0191321961197441,0.0149143909066915));
#824=CARTESIAN_POINT('',(0.035209558904171,-0.0191321961197441,0.0149143909066915));
#825=CARTESIAN_POINT('',(0.035209558904171,-0.0941321961197441,0.0149143909066916));
#826=CARTESIAN_POINT('',(0.035209558904171,-0.0191321961197441,0.0530101656913757));
#827=CARTESIAN_POINT('',(0.035209558904171,-0.0191321961197441,0.0366873663010652));
#828=CARTESIAN_POINT('',(0.035209558904171,-0.0191321961197441,0.0366873663010652));
#829=CARTESIAN_POINT('',(0.035209558904171,-0.0941321961197441,0.0366873663010652));
#830=CARTESIAN_POINT('',(0.035209558904171,-0.0941321961197441,0.0530101656913757));
#831=CARTESIAN_POINT('',(0.,-0.0191321961197441,0.182496443390847));
#832=CARTESIAN_POINT('',(0.,-0.0941321961197441,0.182496443390847));
#833=CARTESIAN_POINT('',(-0.035209558904171,-0.0941321961197441,0.0366873663010652));
#834=CARTESIAN_POINT('',(0.,-0.0191321961197441,0.182496443390847));
#835=CARTESIAN_POINT('',(-0.035209558904171,-0.0191321961197441,0.0366873663010652));
#836=CARTESIAN_POINT('',(-0.035209558904171,-0.0191321961197441,0.0366873663010652));
#837=CARTESIAN_POINT('',(-0.035209558904171,-0.0191321961197441,0.0530101656913757));
#838=CARTESIAN_POINT('',(-0.035209558904171,-0.0191321961197441,0.0530101656913757));
#839=CARTESIAN_POINT('',(-0.035209558904171,-0.0191321961197441,0.0149143909066915));
#840=CARTESIAN_POINT('',(-0.035209558904171,-0.0191321961197441,0.0149143909066915));
#841=CARTESIAN_POINT('',(-0.035209558904171,-0.0941321961197441,0.0149143909066915));
#842=CARTESIAN_POINT('',(-0.035209558904171,-0.0941321961197441,0.0530101656913757));
#843=CARTESIAN_POINT('',(0.,-0.0191321961197441,0.171705417148769));
#844=CARTESIAN_POINT('',(0.,-0.0191321961197441,0.0149143909066915));
#845=CARTESIAN_POINT('',(0.,-0.0941321961197441,0.171705417148769));
#846=CARTESIAN_POINT('',(0.,-0.0941321961197441,0.0149143909066915));
#847=CARTESIAN_POINT('',(0.,-0.0191321961197441,0.0149143909066915));
#848=CARTESIAN_POINT('',(0.,0.,0.));
#849=CARTESIAN_POINT('',(0.,0.180867803880256,0.182496443390847));
#850=CARTESIAN_POINT('',(0.,0.180867803880256,0.182496443390847));
#851=CARTESIAN_POINT('',(0.,0.180867803880256,0.332496443390846));
#852=CARTESIAN_POINT('',(0.,-0.119132196119744,0.182496443390847));
#853=CARTESIAN_POINT('',(0.,-0.119132196119744,0.332496443390846));
#854=CARTESIAN_POINT('',(0.,0.180867803880256,0.168748221695423));
#855=CARTESIAN_POINT('',(0.,0.180867803880256,0.182496443390847));
#856=CARTESIAN_POINT('',(0.,0.180867803880256,0.329996443390846));
#857=CARTESIAN_POINT('',(0.,-0.119132196119744,0.168748221695423));
#858=CARTESIAN_POINT('',(0.,0.180867803880256,0.182496443390847));
#859=CARTESIAN_POINT('',(0.,-0.116632196119744,0.182496443390847));
#860=CARTESIAN_POINT('',(0.,-0.116632196119744,0.329996443390846));
#861=CARTESIAN_POINT('',(0.,-0.116632196119744,0.168748221695423));
#862=CARTESIAN_POINT('',(0.,0.,0.));
#863=CARTESIAN_POINT('',(0.00146194314584133,-2.77555756156289E-17,0.011));
#864=CARTESIAN_POINT('',(-0.0335,-0.109132196119744,0.011));
#865=CARTESIAN_POINT('',(-0.0335,-0.128132196119744,0.011));
#866=CARTESIAN_POINT('',(-0.0335,-0.0841321961197441,0.011));
#867=CARTESIAN_POINT('',(0.,-0.128132196119744,0.011));
#868=CARTESIAN_POINT('',(0.0335,-0.128132196119744,0.011));
#869=CARTESIAN_POINT('',(0.0335,-0.109132196119744,0.011));
#870=CARTESIAN_POINT('',(0.0335,-0.0841321961197441,0.011));
#871=CARTESIAN_POINT('',(6.93889390390723E-18,-0.0841321961197441,0.011));
#872=CARTESIAN_POINT('',(0.,-0.134132196119744,0.007));
#873=CARTESIAN_POINT('',(0.,-0.134132196119744,0.005));
#874=CARTESIAN_POINT('',(0.0335,-0.134132196119744,0.005));
#875=CARTESIAN_POINT('',(-0.0335,-0.134132196119744,0.005));
#876=CARTESIAN_POINT('',(0.0335,-0.134132196119744,0.007));
#877=CARTESIAN_POINT('',(0.0335,-0.134132196119744,0.05));
#878=CARTESIAN_POINT('',(0.,-0.134132196119744,0.05));
#879=CARTESIAN_POINT('',(-0.0335,-0.134132196119744,0.05));
#880=CARTESIAN_POINT('',(-0.0335,-0.134132196119744,0.007));
#881=CARTESIAN_POINT('',(0.0335,-0.109132196119744,0.007));
#882=CARTESIAN_POINT('',(0.0335,-0.128132196119744,0.05));
#883=CARTESIAN_POINT('',(0.0335,-0.128132196119744,0.05));
#884=CARTESIAN_POINT('',(0.0335,-0.109132196119744,0.05));
#885=CARTESIAN_POINT('',(0.0335,-0.109132196119744,0.005));
#886=CARTESIAN_POINT('',(0.0335,-0.0841321961197441,0.005));
#887=CARTESIAN_POINT('',(0.0335,-0.0841321961197441,0.007));
#888=CARTESIAN_POINT('',(6.93889390390723E-18,-0.0841321961197441,0.007));
#889=CARTESIAN_POINT('',(6.93889390390723E-18,-0.0841321961197441,0.005));
#890=CARTESIAN_POINT('',(-0.0335,-0.0841321961197441,0.005));
#891=CARTESIAN_POINT('',(-0.0335,-0.0841321961197441,0.007));
#892=CARTESIAN_POINT('',(-0.0335,-0.109132196119744,0.007));
#893=CARTESIAN_POINT('',(-0.0335,-0.128132196119744,0.05));
#894=CARTESIAN_POINT('',(-0.0335,-0.128132196119744,0.05));
#895=CARTESIAN_POINT('',(-0.0335,-0.109132196119744,0.005));
#896=CARTESIAN_POINT('',(-0.0335,-0.109132196119744,0.05));
#897=CARTESIAN_POINT('',(0.00146194314584133,-2.77555756156289E-17,0.005));
#898=CARTESIAN_POINT('',(0.,-0.109132196119744,0.05));
#899=CARTESIAN_POINT('',(0.,-0.128132196119744,0.05));
#900=CARTESIAN_POINT('',(0.,-0.128132196119744,0.05));
#901=CARTESIAN_POINT('',(0.,0.,0.));
#902=CARTESIAN_POINT('',(0.126461943145841,0.,0.005));
#903=CARTESIAN_POINT('',(0.126461943145841,0.,0.));
#904=CARTESIAN_POINT('',(0.126461943145841,0.225,0.));
#905=CARTESIAN_POINT('',(0.126461943145841,-0.225,0.));
#906=CARTESIAN_POINT('',(0.126461943145841,0.225,0.005));
#907=CARTESIAN_POINT('',(0.126461943145841,0.225,0.005));
#908=CARTESIAN_POINT('',(0.126461943145841,0.,0.005));
#909=CARTESIAN_POINT('',(0.126461943145841,-0.225,0.005));
#910=CARTESIAN_POINT('',(0.126461943145841,-0.225,0.005));
#911=CARTESIAN_POINT('',(0.0014619431458413,0.225,0.005));
#912=CARTESIAN_POINT('',(0.0014619431458413,0.225,0.));
#913=CARTESIAN_POINT('',(-0.123538056854159,0.225,0.));
#914=CARTESIAN_POINT('',(-0.123538056854159,0.225,0.005));
#915=CARTESIAN_POINT('',(-0.123538056854159,0.225,0.005));
#916=CARTESIAN_POINT('',(0.0014619431458413,0.225,0.005));
#917=CARTESIAN_POINT('',(-0.123538056854159,-2.77555756156289E-17,0.005));
#918=CARTESIAN_POINT('',(-0.123538056854159,-2.77555756156289E-17,0.));
#919=CARTESIAN_POINT('',(-0.123538056854159,-0.225,0.));
#920=CARTESIAN_POINT('',(-0.123538056854159,-0.225,0.005));
#921=CARTESIAN_POINT('',(-0.123538056854159,-0.225,0.005));
#922=CARTESIAN_POINT('',(-0.123538056854159,-2.77555756156289E-17,0.005));
#923=CARTESIAN_POINT('',(0.00146194314584136,-0.225,0.005));
#924=CARTESIAN_POINT('',(0.00146194314584136,-0.225,0.));
#925=CARTESIAN_POINT('',(0.00146194314584136,-0.225,0.005));
#926=CARTESIAN_POINT('',(0.00146194314584133,-2.77555756156289E-17,0.005));
#927=CARTESIAN_POINT('',(0.00146194314584133,-2.77555756156289E-17,0.));
#928=MECHANICAL_DESIGN_GEOMETRIC_PRESENTATION_REPRESENTATION('',(#521),
#933);
#929=MECHANICAL_DESIGN_GEOMETRIC_PRESENTATION_REPRESENTATION('',(#522),
#934);
#930=MECHANICAL_DESIGN_GEOMETRIC_PRESENTATION_REPRESENTATION('',(#523),
#935);
#931=MECHANICAL_DESIGN_GEOMETRIC_PRESENTATION_REPRESENTATION('',(#524),
#936);
#932=MECHANICAL_DESIGN_GEOMETRIC_PRESENTATION_REPRESENTATION('',(#525),
#937);
#933=(
GEOMETRIC_REPRESENTATION_CONTEXT(3)
GLOBAL_UNCERTAINTY_ASSIGNED_CONTEXT((#938))
GLOBAL_UNIT_ASSIGNED_CONTEXT((#953,#948,#943))
REPRESENTATION_CONTEXT('office chair arm','TOP_LEVEL_ASSEMBLY_PART')
);
#934=(
GEOMETRIC_REPRESENTATION_CONTEXT(3)
GLOBAL_UNCERTAINTY_ASSIGNED_CONTEXT((#939))
GLOBAL_UNIT_ASSIGNED_CONTEXT((#954,#949,#944))
REPRESENTATION_CONTEXT('heater','TOP_LEVEL_ASSEMBLY_PART')
);
#935=(
GEOMETRIC_REPRESENTATION_CONTEXT(3)
GLOBAL_UNCERTAINTY_ASSIGNED_CONTEXT((#940))
GLOBAL_UNIT_ASSIGNED_CONTEXT((#955,#950,#945))
REPRESENTATION_CONTEXT('bucket','TOP_LEVEL_ASSEMBLY_PART')
);
#936=(
GEOMETRIC_REPRESENTATION_CONTEXT(3)
GLOBAL_UNCERTAINTY_ASSIGNED_CONTEXT((#941))
GLOBAL_UNIT_ASSIGNED_CONTEXT((#956,#951,#946))
REPRESENTATION_CONTEXT('right angle bracket','TOP_LEVEL_ASSEMBLY_PART')
);
#937=(
GEOMETRIC_REPRESENTATION_CONTEXT(3)
GLOBAL_UNCERTAINTY_ASSIGNED_CONTEXT((#942))
GLOBAL_UNIT_ASSIGNED_CONTEXT((#957,#952,#947))
REPRESENTATION_CONTEXT('plank','TOP_LEVEL_ASSEMBLY_PART')
);
#938=UNCERTAINTY_MEASURE_WITH_UNIT(LENGTH_MEASURE(1.E-8),#953,
'DISTANCE_ACCURACY_VALUE','Maximum Tolerance applied to model');
#939=UNCERTAINTY_MEASURE_WITH_UNIT(LENGTH_MEASURE(1.E-8),#954,
'DISTANCE_ACCURACY_VALUE','Maximum Tolerance applied to model');
#940=UNCERTAINTY_MEASURE_WITH_UNIT(LENGTH_MEASURE(1.E-8),#955,
'DISTANCE_ACCURACY_VALUE','Maximum Tolerance applied to model');
#941=UNCERTAINTY_MEASURE_WITH_UNIT(LENGTH_MEASURE(1.E-8),#956,
'DISTANCE_ACCURACY_VALUE','Maximum Tolerance applied to model');
#942=UNCERTAINTY_MEASURE_WITH_UNIT(LENGTH_MEASURE(1.E-8),#957,
'DISTANCE_ACCURACY_VALUE','Maximum Tolerance applied to model');
#943=(
NAMED_UNIT(*)
SI_UNIT($,.STERADIAN.)
SOLID_ANGLE_UNIT()
);
#944=(
NAMED_UNIT(*)
SI_UNIT($,.STERADIAN.)
SOLID_ANGLE_UNIT()
);
#945=(
NAMED_UNIT(*)
SI_UNIT($,.STERADIAN.)
SOLID_ANGLE_UNIT()
);
#946=(
NAMED_UNIT(*)
SI_UNIT($,.STERADIAN.)
SOLID_ANGLE_UNIT()
);
#947=(
NAMED_UNIT(*)
SI_UNIT($,.STERADIAN.)
SOLID_ANGLE_UNIT()
);
#948=(
NAMED_UNIT(*)
PLANE_ANGLE_UNIT()
SI_UNIT($,.RADIAN.)
);
#949=(
NAMED_UNIT(*)
PLANE_ANGLE_UNIT()
SI_UNIT($,.RADIAN.)
);
#950=(
NAMED_UNIT(*)
PLANE_ANGLE_UNIT()
SI_UNIT($,.RADIAN.)
);
#951=(
NAMED_UNIT(*)
PLANE_ANGLE_UNIT()
SI_UNIT($,.RADIAN.)
);
#952=(
NAMED_UNIT(*)
PLANE_ANGLE_UNIT()
SI_UNIT($,.RADIAN.)
);
#953=(
LENGTH_UNIT()
NAMED_UNIT(*)
SI_UNIT($,.METRE.)
);
#954=(
LENGTH_UNIT()
NAMED_UNIT(*)
SI_UNIT($,.METRE.)
);
#955=(
LENGTH_UNIT()
NAMED_UNIT(*)
SI_UNIT($,.METRE.)
);
#956=(
LENGTH_UNIT()
NAMED_UNIT(*)
SI_UNIT($,.METRE.)
);
#957=(
LENGTH_UNIT()
NAMED_UNIT(*)
SI_UNIT($,.METRE.)
);
#958=PRODUCT_DEFINITION_SHAPE('','',#963);
#959=PRODUCT_DEFINITION_SHAPE('','',#964);
#960=PRODUCT_DEFINITION_SHAPE('','',#965);
#961=PRODUCT_DEFINITION_SHAPE('','',#966);
#962=PRODUCT_DEFINITION_SHAPE('','',#967);
#963=PRODUCT_DEFINITION('','',#973,#968);
#964=PRODUCT_DEFINITION('','',#974,#969);
#965=PRODUCT_DEFINITION('','',#975,#970);
#966=PRODUCT_DEFINITION('','',#976,#971);
#967=PRODUCT_DEFINITION('','',#977,#972);
#968=PRODUCT_DEFINITION_CONTEXT('',#1003,'design');
#969=PRODUCT_DEFINITION_CONTEXT('',#1004,'design');
#970=PRODUCT_DEFINITION_CONTEXT('',#1005,'design');
#971=PRODUCT_DEFINITION_CONTEXT('',#1006,'design');
#972=PRODUCT_DEFINITION_CONTEXT('',#1007,'design');
#973=PRODUCT_DEFINITION_FORMATION_WITH_SPECIFIED_SOURCE('','',#983,
 .NOT_KNOWN.);
#974=PRODUCT_DEFINITION_FORMATION_WITH_SPECIFIED_SOURCE('','',#984,
 .NOT_KNOWN.);
#975=PRODUCT_DEFINITION_FORMATION_WITH_SPECIFIED_SOURCE('','',#985,
 .NOT_KNOWN.);
#976=PRODUCT_DEFINITION_FORMATION_WITH_SPECIFIED_SOURCE('','',#986,
 .NOT_KNOWN.);
#977=PRODUCT_DEFINITION_FORMATION_WITH_SPECIFIED_SOURCE('','',#987,
 .NOT_KNOWN.);
#978=PRODUCT_RELATED_PRODUCT_CATEGORY('','',(#983));
#979=PRODUCT_RELATED_PRODUCT_CATEGORY('','',(#984));
#980=PRODUCT_RELATED_PRODUCT_CATEGORY('','',(#985));
#981=PRODUCT_RELATED_PRODUCT_CATEGORY('','',(#986));
#982=PRODUCT_RELATED_PRODUCT_CATEGORY('','',(#987));
#983=PRODUCT('office chair arm','office chair arm','office chair arm',(#993));
#984=PRODUCT('heater','heater','heater',(#994));
#985=PRODUCT('bucket','bucket','bucket',(#995));
#986=PRODUCT('right angle bracket','right angle bracket',
'right angle bracket',(#996));
#987=PRODUCT('plank','plank','plank',(#997));
#988=PRODUCT_CATEGORY('','');
#989=PRODUCT_CATEGORY('','');
#990=PRODUCT_CATEGORY('','');
#991=PRODUCT_CATEGORY('','');
#992=PRODUCT_CATEGORY('','');
#993=PRODUCT_CONTEXT('',#1003,'mechanical');
#994=PRODUCT_CONTEXT('',#1004,'mechanical');
#995=PRODUCT_CONTEXT('',#1005,'mechanical');
#996=PRODUCT_CONTEXT('',#1006,'mechanical');
#997=PRODUCT_CONTEXT('',#1007,'mechanical');
#998=APPLICATION_PROTOCOL_DEFINITION('international standard',
'ap242_managed_model_based_3d_engineering',2020,#1003);
#999=APPLICATION_PROTOCOL_DEFINITION('international standard',
'ap242_managed_model_based_3d_engineering',2020,#1004);
#1000=APPLICATION_PROTOCOL_DEFINITION('international standard',
'ap242_managed_model_based_3d_engineering',2020,#1005);
#1001=APPLICATION_PROTOCOL_DEFINITION('international standard',
'ap242_managed_model_based_3d_engineering',2020,#1006);
#1002=APPLICATION_PROTOCOL_DEFINITION('international standard',
'ap242_managed_model_based_3d_engineering',2020,#1007);
#1003=APPLICATION_CONTEXT('managed model based 3d engineering');
#1004=APPLICATION_CONTEXT('managed model based 3d engineering');
#1005=APPLICATION_CONTEXT('managed model based 3d engineering');
#1006=APPLICATION_CONTEXT('managed model based 3d engineering');
#1007=APPLICATION_CONTEXT('managed model based 3d engineering');
ENDSEC;
END-ISO-10303-21;
